<svg width="30" height="21" viewBox="0 0 30 21" fill="none" xmlns="http://www.w3.org/2000/svg">
<path d="M29.7295 18.8727C29.7295 19.8162 28.9646 20.5811 28.0212 20.5811H8.38039C7.43691 20.5811 6.67206 19.8162 6.67206 18.8727C6.67206 17.9292 7.43691 17.1644 8.38039 17.1644H28.0212C28.9646 17.1644 29.7295 17.9292 29.7295 18.8727ZM29.7295 10.3311C29.7295 11.2745 28.9646 12.0394 28.0212 12.0394H11.5426C10.5991 12.0394 9.83422 11.2745 9.83422 10.3311C9.83422 9.38757 10.5991 8.62272 11.5426 8.62272H28.0212C28.9646 8.62272 29.7295 9.38757 29.7295 10.3311ZM28.0212 0.0810547C28.9646 0.0810547 29.7295 0.845902 29.7295 1.78939C29.7295 2.73287 28.9646 3.49772 28.0212 3.49772H2.18782C1.24434 3.49772 0.479492 2.73287 0.479492 1.78939C0.479492 0.845902 1.24434 0.0810547 2.18783 0.0810547H28.0212Z" fill="white"/>
</svg>
