<svg width="11" height="11" viewBox="0 0 11 11" fill="none" xmlns="http://www.w3.org/2000/svg">
<path d="M0.854443 9.25465C0.608415 9.50069 0.608415 9.89952 0.854443 10.1456C1.10047 10.3916 1.49937 10.3916 1.7454 10.1456L0.854443 9.25465ZM5.94537 5.94556C6.19141 5.69952 6.19141 5.30069 5.94537 5.05465C5.69934 4.80862 5.3005 4.80862 5.05447 5.05465L5.94537 5.94556ZM5.05447 5.05465C4.80843 5.30069 4.80843 5.69952 5.05447 5.94556C5.3005 6.19159 5.69934 6.19159 5.94537 5.94556L5.05447 5.05465ZM10.1454 1.74558C10.3914 1.49955 10.3914 1.10065 10.1454 0.854626C9.89934 0.608598 9.5005 0.608598 9.25447 0.854626L10.1454 1.74558ZM5.94537 5.05465C5.69934 4.80862 5.3005 4.80862 5.05447 5.05465C4.80843 5.30069 4.80843 5.69952 5.05447 5.94556L5.94537 5.05465ZM9.25447 10.1456C9.5005 10.3916 9.89934 10.3916 10.1454 10.1456C10.3914 9.89952 10.3914 9.50069 10.1454 9.25465L9.25447 10.1456ZM5.05447 5.94556C5.3005 6.19159 5.69934 6.19159 5.94537 5.94556C6.19141 5.69952 6.19141 5.30069 5.94537 5.05465L5.05447 5.94556ZM1.7454 0.854626C1.49937 0.608598 1.10047 0.608598 0.854443 0.854626C0.608415 1.10065 0.608415 1.49955 0.854443 1.74558L1.7454 0.854626ZM1.7454 10.1456L5.94537 5.94556L5.05447 5.05465L0.854443 9.25465L1.7454 10.1456ZM5.94537 5.94556L10.1454 1.74558L9.25447 0.854626L5.05447 5.05465L5.94537 5.94556ZM5.05447 5.94556L9.25447 10.1456L10.1454 9.25465L5.94537 5.05465L5.05447 5.94556ZM5.94537 5.05465L1.7454 0.854626L0.854443 1.74558L5.05447 5.94556L5.94537 5.05465Z" fill="#9E170E"/>
</svg>
