<svg width="39" height="41" viewBox="0 0 39 41" fill="none" xmlns="http://www.w3.org/2000/svg">
<g clip-path="url(#clip0_124_3307)">
<path d="M33.7295 29.8727C33.7295 30.8162 32.9646 31.5811 32.0212 31.5811H12.3804C11.4369 31.5811 10.6721 30.8162 10.6721 29.8727C10.6721 28.9292 11.4369 28.1644 12.3804 28.1644H32.0212C32.9646 28.1644 33.7295 28.9292 33.7295 29.8727ZM33.7295 21.3311C33.7295 22.2745 32.9646 23.0394 32.0212 23.0394H15.5426C14.5991 23.0394 13.8342 22.2745 13.8342 21.3311C13.8342 20.3876 14.5991 19.6227 15.5426 19.6227H32.0212C32.9646 19.6227 33.7295 20.3876 33.7295 21.3311ZM32.0212 11.0811C32.9646 11.0811 33.7295 11.8459 33.7295 12.7894C33.7295 13.7329 32.9646 14.4977 32.0212 14.4977H6.18782C5.24434 14.4977 4.47949 13.7329 4.47949 12.7894C4.47949 11.8459 5.24434 11.0811 6.18783 11.0811H32.0212Z" fill="black"/>
</g>
<defs>
<clipPath id="clip0_124_3307">
<rect width="39" height="41" rx="19.5" transform="matrix(-1 0 0 1 39 0)" fill="white"/>
</clipPath>
</defs>
</svg>
