<svg width="31" height="31" viewBox="0 0 31 31" fill="none" xmlns="http://www.w3.org/2000/svg">
<path fill-rule="evenodd" clip-rule="evenodd" d="M8.05197 13.0273C7.25675 13.326 6.3689 12.9231 6.07015 12.1279C5.77141 11.3326 6.17434 10.4448 6.96956 10.146C7.76478 9.84729 8.65263 10.2502 8.95138 11.0454C9.25012 11.8407 8.84719 12.7285 8.05197 13.0273ZM6.42836 8.70542C4.8372 9.30318 4.03178 11.0779 4.62954 12.6691C5.2273 14.2602 7.00202 15.0656 8.59317 14.4679C10.1843 13.8701 10.9898 12.0954 10.392 10.5042C9.79423 8.91309 8.01952 8.10766 6.42836 8.70542ZM25.8276 12.2084L19.8475 9.41794L15.423 19.391L11.3868 17.5282L7.60975 24.9779L2.10652 10.329C1.80777 9.53382 2.21071 8.64596 3.00593 8.34722L20.2933 1.85277C21.0885 1.55403 21.9764 1.95696 22.2751 2.75218L25.8276 12.2084ZM28.7696 20.0395C29.0683 20.8348 28.6654 21.7226 27.8701 22.0214L24.1476 23.4198L16.8203 20.0365L20.659 11.5781L26.6045 14.2764L28.7696 20.0395ZM10.5828 28.5158C9.78757 28.8146 8.89971 28.4116 8.60097 27.6164L8.34687 26.94L12.1441 19.6644L22.1084 24.1859L10.5828 28.5158ZM19.7521 0.412157L2.46472 6.90661C0.873565 7.50437 0.0681443 9.27908 0.665904 10.8702L7.16035 28.1576C7.75811 29.7488 9.53283 30.5542 11.124 29.9564L28.4113 23.462C30.0025 22.8642 30.8079 21.0895 30.2102 19.4983L23.7157 2.21098C23.118 0.619818 21.3432 -0.185603 19.7521 0.412157Z" fill="white"/>
</svg>
