<svg width="18" height="18" viewBox="0 0 18 18" fill="none" xmlns="http://www.w3.org/2000/svg">
<path fill-rule="evenodd" clip-rule="evenodd" d="M17.6047 5.25961C17.54 3.85864 17.2279 2.61767 16.2269 1.59524C15.2296 0.5728 14.0192 0.252801 12.6528 0.182557C11.2444 0.100606 7.02328 0.100606 5.61495 0.182557C4.2523 0.248898 3.0419 0.568897 2.04085 1.59133C1.0398 2.61377 0.731489 3.85474 0.662976 5.25571C0.583044 6.69961 0.583044 11.0274 0.662976 12.4713C0.727683 13.8723 1.0398 15.1132 2.04085 16.1357C3.0419 17.1581 4.2485 17.4781 5.61495 17.5484C7.02328 17.6303 11.2444 17.6303 12.6528 17.5484C14.0192 17.482 15.2296 17.162 16.2269 16.1357C17.2241 15.1132 17.5362 13.8723 17.6047 12.4713C17.6847 11.0274 17.6847 6.70351 17.6047 5.25961ZM13.6876 5.24209C14.2509 5.24209 14.7076 4.7777 14.7076 4.19624C14.7076 3.61868 14.2509 3.15039 13.6876 3.15039C13.1242 3.15039 12.6675 3.61868 12.6675 4.19624C12.6675 4.7738 13.1204 5.24209 13.6876 5.24209ZM9.1366 4.38086C6.71581 4.38086 4.76318 6.3828 4.76318 8.86475C4.76318 11.3467 6.71581 13.3486 9.1366 13.3486C11.5574 13.3486 13.51 11.3467 13.51 8.86475C13.51 6.3828 11.5574 4.38086 9.1366 4.38086ZM6.29248 8.86628C6.29248 7.25848 7.56759 5.95117 9.13577 5.95117C10.704 5.95117 11.9791 7.25848 11.9791 8.86628C11.9791 10.4741 10.7002 11.7814 9.13577 11.7814C7.57139 11.7814 6.29248 10.4741 6.29248 8.86628ZM14.1628 15.6824C14.9127 15.3741 15.4874 14.7848 15.7843 14.0199C16.1663 13.0358 16.145 10.8833 16.1312 9.4879C16.1289 9.25644 16.1269 9.04582 16.1269 8.86481C16.1269 8.68378 16.1289 8.47318 16.1312 8.2418C16.145 6.84717 16.1663 4.6971 15.7843 3.70971C15.4836 2.94093 14.9088 2.35166 14.1628 2.04727C13.2 1.65778 11.0903 1.67853 9.72965 1.69191C9.50893 1.69408 9.30792 1.69605 9.13471 1.69605C8.95814 1.69605 8.75273 1.69392 8.52705 1.69158C7.16678 1.67745 5.06968 1.65566 4.10661 2.04727C3.35678 2.35556 2.78203 2.94483 2.48514 3.70971C2.10524 4.69688 2.12548 6.85988 2.13853 8.25485C2.14064 8.48115 2.14257 8.68724 2.14257 8.86481C2.14257 9.04585 2.14049 9.25644 2.13821 9.48783C2.12442 10.8825 2.10318 13.0325 2.48514 14.0199C2.78583 14.7887 3.36058 15.378 4.10661 15.6824C5.06946 16.0718 7.17917 16.0511 8.53977 16.0377C8.7605 16.0355 8.96151 16.0336 9.13471 16.0336C9.31129 16.0336 9.5167 16.0357 9.74238 16.038C11.1027 16.0522 13.1997 16.074 14.1628 15.6824Z" fill="white"/>
</svg>
