<svg width="16" height="15" viewBox="0 0 16 15" fill="none" xmlns="http://www.w3.org/2000/svg">
<rect x="0.854004" y="4.57422" width="3.22792" height="10.0171" fill="white"/>
<path d="M12.8694 4.69169C12.8351 4.68076 12.8027 4.66893 12.7666 4.65891C12.7233 4.64889 12.68 4.6407 12.6358 4.63341C12.4643 4.59881 12.2767 4.57422 12.0566 4.57422C10.1747 4.57422 8.98112 5.95567 8.58778 6.48931V4.57422H5.35986V14.5913H8.58778V9.12746C8.58778 9.12746 11.0272 5.69796 12.0566 8.21681C12.0566 10.4652 12.0566 14.5913 12.0566 14.5913H15.2836V7.8316C15.2836 6.31811 14.256 5.05686 12.8694 4.69169Z" fill="white"/>
<ellipse cx="2.43278" cy="1.61512" rx="1.57877" ry="1.59363" fill="white"/>
</svg>
