<svg width="26" height="26" viewBox="0 0 26 26" fill="none" xmlns="http://www.w3.org/2000/svg">
<path d="M5.82007 7.51813C5.86503 6.33199 6.54657 5.25899 7.42246 4.38311C8.88011 2.92545 11.2057 3.12131 12.1312 4.77965L12.8104 5.9966C13.4233 7.09483 13.1773 8.53553 12.2119 9.50085M18.4407 20.1387C19.6268 20.0938 20.6998 19.4122 21.5757 18.5363C23.0334 17.0786 22.8375 14.753 21.1792 13.8275L19.9621 13.1484C18.864 12.5355 17.4232 12.7815 16.4579 13.7468" stroke="white" stroke-width="1.56968"/>
<path d="M5.82009 7.51831C5.74439 9.51508 6.24974 12.9061 9.6513 16.3077C13.0529 19.7093 16.4439 20.2146 18.4407 20.1389M16.4579 13.747C16.4579 13.747 15.287 14.9179 13.164 12.7949C11.0411 10.6719 12.212 9.50103 12.212 9.50103" stroke="white" stroke-width="1.56968"/>
</svg>
