<svg width="19" height="15" viewBox="0 0 19 15" fill="none" xmlns="http://www.w3.org/2000/svg">
<path d="M1.16643 1.61809C1.33232 1.45221 1.56149 1.34961 1.81462 1.34961H16.4813C16.7344 1.34961 16.9635 1.45221 17.1295 1.61809M1.16643 1.61809C1.00055 1.78398 0.897949 2.01315 0.897949 2.26628V13.2663C0.897949 13.7726 1.30836 14.1829 1.81462 14.1829H16.4813C16.9876 14.1829 17.3979 13.7726 17.3979 13.2663V2.26628C17.3979 2.01315 17.2954 1.78398 17.1295 1.61809M1.16643 1.61809L7.8516 8.30317C8.56752 9.01918 9.72838 9.01918 10.4443 8.30317L17.1295 1.61809" fill="white" fill-opacity="0.05"/>
<path d="M1.16643 1.61809C1.33232 1.45221 1.56149 1.34961 1.81462 1.34961H16.4813C16.7344 1.34961 16.9635 1.45221 17.1295 1.61809M1.16643 1.61809C1.00055 1.78398 0.897949 2.01315 0.897949 2.26628V13.2663C0.897949 13.7726 1.30836 14.1829 1.81462 14.1829H16.4813C16.9876 14.1829 17.3979 13.7726 17.3979 13.2663V2.26628C17.3979 2.01315 17.2954 1.78398 17.1295 1.61809M1.16643 1.61809L7.8516 8.30317C8.56752 9.01918 9.72838 9.01918 10.4443 8.30317L17.1295 1.61809" stroke="white" stroke-width="1.4" stroke-linecap="round" stroke-linejoin="round"/>
</svg>
