<svg width="17" height="14" viewBox="0 0 17 14" fill="none" xmlns="http://www.w3.org/2000/svg">
<path d="M5.75585 13.5898C11.9421 13.5898 15.3262 8.68332 15.3262 4.43583C15.3262 4.29853 15.3262 4.15927 15.3201 4.02197C15.9789 3.56543 16.5475 3.00021 16.9993 2.35279C16.3839 2.61253 15.7317 2.78372 15.0639 2.8608C15.7673 2.45835 16.2941 1.82513 16.5464 1.07884C15.8856 1.45359 15.1623 1.71667 14.4082 1.85655C13.9012 1.33973 13.2304 0.997358 12.4995 0.882457C11.7687 0.767555 11.0187 0.88654 10.3657 1.22098C9.71263 1.55542 9.19303 2.08665 8.88735 2.73239C8.58167 3.37812 8.50696 4.10232 8.6748 4.79281C7.3375 4.72863 6.02922 4.39608 4.83482 3.81675C3.64042 3.23741 2.58658 2.42423 1.74165 1.42993C1.31271 2.13907 1.18181 2.9779 1.37552 3.77607C1.56924 4.57424 2.07305 5.27192 2.78465 5.72744C2.25141 5.71009 1.72989 5.57303 1.26216 5.3273V5.37144C1.26308 6.11431 1.53193 6.8341 2.02327 7.40913C2.51462 7.98416 3.19831 8.37917 3.95878 8.52738C3.67013 8.6035 3.37195 8.64145 3.07255 8.64017C2.86147 8.64078 2.65082 8.62206 2.44347 8.58426C2.65841 9.22375 3.07692 9.78286 3.6404 10.1833C4.20388 10.5837 4.88409 10.8054 5.58578 10.8174C4.39376 11.7135 2.92132 12.1996 1.4056 12.1972C1.13852 12.1983 0.871623 12.1836 0.606445 12.1531C2.14483 13.0919 3.93143 13.5904 5.75585 13.5898Z" fill="white"/>
</svg>
