<svg width="40" height="39" viewBox="0 0 40 39" fill="none" xmlns="http://www.w3.org/2000/svg">
<g clip-path="url(#clip0_124_1709)">
<path d="M22.1483 33.3895C29.7732 32.1409 34.9424 24.9473 33.6937 17.3224C32.4451 9.69739 25.2515 4.52835 17.6266 5.77698C10.0016 7.02562 4.83254 14.2191 6.08118 21.8441C6.44285 24.0527 7.30326 26.0552 8.52846 27.7554C8.85404 28.2072 9.02768 28.7562 8.97256 29.3103L8.65354 32.5184C8.51503 33.911 9.93545 34.9316 11.2112 34.3562L14.1498 33.0306C14.6575 32.8016 15.2331 32.7911 15.7652 32.9555C17.7674 33.5745 19.9397 33.7512 22.1483 33.3895Z" stroke="black" stroke-width="2.09852"/>
<path d="M14.3652 20.4861L14.3777 20.484M19.8753 19.5838L19.8877 19.5817M25.3978 18.6794L25.4103 18.6774" stroke="black" stroke-width="2.79803" stroke-linecap="round" stroke-linejoin="round"/>
</g>
<defs>
<clipPath id="clip0_124_1709">
<rect width="33.5764" height="33.5764" fill="white" transform="translate(0.606934 5.72827) rotate(-9.3)"/>
</clipPath>
</defs>
</svg>
