<svg width="33" height="33" viewBox="0 0 33 33" fill="none" xmlns="http://www.w3.org/2000/svg">
<path fill-rule="evenodd" clip-rule="evenodd" d="M9.05197 14.0273C8.25675 14.326 7.3689 13.9231 7.07015 13.1279C6.77141 12.3326 7.17434 11.4448 7.96956 11.146C8.76478 10.8473 9.65263 11.2502 9.95138 12.0454C10.2501 12.8407 9.84719 13.7285 9.05197 14.0273ZM7.42836 9.70542C5.8372 10.3032 5.03178 12.0779 5.62954 13.6691C6.2273 15.2602 8.00202 16.0656 9.59317 15.4679C11.1843 14.8701 11.9898 13.0954 11.392 11.5042C10.7942 9.91309 9.01952 9.10766 7.42836 9.70542ZM26.8276 13.2084L20.8475 10.4179L16.423 20.391L12.3868 18.5282L8.60975 25.9779L3.10652 11.329C2.80777 10.5338 3.21071 9.64596 4.00593 9.34722L21.2933 2.85277C22.0885 2.55403 22.9764 2.95696 23.2751 3.75218L26.8276 13.2084ZM29.7696 21.0395C30.0683 21.8348 29.6654 22.7226 28.8701 23.0214L25.1476 24.4198L17.8203 21.0365L21.659 12.5781L27.6045 15.2764L29.7696 21.0395ZM11.5828 29.5158C10.7876 29.8146 9.89971 29.4116 9.60097 28.6164L9.34687 27.94L13.1441 20.6644L23.1084 25.1859L11.5828 29.5158ZM20.7521 1.41216L3.46472 7.90661C1.87357 8.50437 1.06814 10.2791 1.6659 11.8702L8.16035 29.1576C8.75811 30.7488 10.5328 31.5542 12.124 30.9564L29.4113 24.462C31.0025 23.8642 31.8079 22.0895 31.2102 20.4983L24.7157 3.21098C24.118 1.61982 22.3432 0.814397 20.7521 1.41216Z" fill="black"/>
</svg>
