<svg width="45" height="45" viewBox="0 0 45 45" fill="none" xmlns="http://www.w3.org/2000/svg">
<g clip-path="url(#clip0_124_1715)">
<path fill-rule="evenodd" clip-rule="evenodd" d="M20.9748 20.3512C21.7143 20.293 22.482 20.6299 22.9034 21.3771L25.5394 26.0496C25.9593 26.7942 25.8647 27.6306 25.5243 28.2504C25.184 28.8701 24.5289 29.3987 23.6753 29.4437L18.318 29.7264C17.4614 29.7716 16.7651 29.3047 16.4175 28.6492C16.076 28.0051 16.0726 27.1994 16.4587 26.4963L19.1801 21.5411C19.5662 20.8382 20.248 20.4086 20.9748 20.3512ZM21.1344 22.3735C21.1047 22.3759 21.0231 22.3994 20.9582 22.5176L18.2368 27.4728C18.1719 27.591 18.1958 27.6725 18.2097 27.6988L18.2107 27.7006L23.5684 27.4179C23.602 27.4162 23.6823 27.3904 23.7463 27.2738C23.8103 27.1572 23.7891 27.0756 23.7725 27.0463L21.1367 22.3739L21.1344 22.3735Z" fill="black"/>
<path fill-rule="evenodd" clip-rule="evenodd" d="M25.7341 8.06081C25.4735 7.91762 25.2738 7.80782 25.0888 7.73064C23.389 7.02133 21.4364 7.66471 20.485 9.2205C18.8419 8.86665 17.1186 9.62038 16.2777 11.1085C15.4481 10.9311 14.6486 10.9309 13.8474 11.1979C12.6161 11.6083 11.8115 12.5055 11.1424 13.7023C10.4991 14.8528 9.90313 16.4259 9.163 18.3795L7.65638 22.3561C7.07757 23.8837 6.6074 25.1246 6.36436 26.1659C6.11007 27.2553 6.07298 28.2462 6.46625 29.2396C6.85647 30.2251 7.56516 30.9468 8.50249 31.6183C9.40883 32.2676 10.6295 32.938 12.1492 33.7726L19.1504 37.6177C20.6701 38.4524 21.8909 39.1228 22.925 39.5392C23.9947 39.9699 24.984 40.1807 26.0249 39.9813C27.0743 39.7801 27.8905 39.2172 28.6734 38.4181C29.4217 37.6543 30.2166 36.5917 31.1952 35.2837L33.7425 31.8787C34.994 30.2059 36.0018 28.859 36.6275 27.6988C37.2784 26.492 37.6039 25.3316 37.2895 24.0724C37.0849 23.2528 36.6556 22.5782 36.0606 21.9731C36.865 20.4652 36.5766 18.6068 35.3966 17.4101C36.1989 15.7724 35.6942 13.7794 34.1837 12.7256C34.0193 12.6109 33.8195 12.5013 33.5588 12.3582L25.7341 8.06081ZM34.4139 20.6624C34.647 19.8529 34.3096 18.9422 33.5167 18.5067L20.5679 11.3952C19.775 10.9597 18.8255 11.1637 18.2673 11.7947C19.4154 12.3051 20.7607 13.044 22.3802 13.9334L30.4029 18.3395C32.0221 19.2288 33.3673 19.9675 34.4139 20.6624ZM33.6706 16.2769C33.8852 15.5867 33.6368 14.8175 33.023 14.3893C32.9602 14.3455 32.8659 14.292 32.533 14.1092L24.8069 9.86599C24.474 9.68314 24.3782 9.63224 24.3076 9.60276C23.6169 9.31456 22.8345 9.51765 22.3673 10.0691L33.6706 16.2769ZM14.4888 13.1224C15.0608 12.9318 15.742 12.9711 16.8678 13.4077C18.014 13.8523 19.445 14.6358 21.4706 15.7482L29.3595 20.0808C31.3851 21.1933 32.814 21.9805 33.8042 22.7093C34.7766 23.4249 35.1753 23.9787 35.3213 24.5637C35.464 25.1352 35.3711 25.7551 34.842 26.7358C34.2963 27.7477 33.3815 28.9749 32.0679 30.7306L29.6136 34.0114C28.582 35.3902 27.8668 36.3427 27.2243 36.9984C26.6057 37.6299 26.1409 37.8935 25.6432 37.989C25.1371 38.0859 24.5684 38.0142 23.6827 37.6575C22.7746 37.2919 21.6601 36.6817 20.0694 35.8081L13.1833 32.0262C11.5926 31.1526 10.4797 30.5395 9.68389 29.9693C8.90767 29.4132 8.54208 28.9719 8.35237 28.4928C8.16576 28.0216 8.13888 27.4879 8.33982 26.627C8.5485 25.733 8.96854 24.6184 9.57861 23.0082L11.0303 19.1767C11.8072 17.1262 12.3519 15.6958 12.913 14.6923C13.4568 13.7197 13.93 13.3086 14.4888 13.1224Z" fill="black"/>
</g>
<defs>
<clipPath id="clip0_124_1715">
<rect width="32.4572" height="32.4572" fill="white" transform="translate(16.2354 0.915771) rotate(28.7757)"/>
</clipPath>
</defs>
</svg>
